<svg xmlns="http://www.w3.org/2000/svg" xmlns:xlink="http://www.w3.org/1999/xlink" width="48" height="48" viewBox="0 0 48 48"><symbol id="a" viewBox="-24 -24 48 48"><path fill="none" d="M24-24h-48v48h48z"/><path d="M-13-4.5a2.499 2.499 0 1 1 5 0 2.5 2.5 0 0 1-5 0zm-2 0a4.5 4.5 0 1 0 9 0 4.5 4.5 0 0 0-9 0zM9-4.5C9-5.882 10.118-7 11.5-7a2.499 2.499 0 1 1 0 5A2.499 2.499 0 0 1 9-4.5zm-2 0a4.5 4.5 0 1 0 9 0 4.5 4.5 0 0 0-9 0z"/><path d="M-3.859-5l-.634.613a5.796 5.796 0 0 1-1.02 3.249l-4.399-3.314-1.038 1.038L-6.767.181c-.331.252-.689.47-1.07.647L-9.22 2.985v1.846L-4 9.5V5h6.193l1.845-3H6.63l1.731 3h3.229l1.669-3.284-.881-.731a5.795 5.795 0 0 1-7.881-5.41c0-.322.026-.264.077-.574h-8.433z"/></symbol><use xlink:href="#a" width="48" height="48" x="-24" y="-24" transform="matrix(1 0 0 -1 24 24)" overflow="visible"/></svg>