<svg xmlns="http://www.w3.org/2000/svg" xmlns:xlink="http://www.w3.org/1999/xlink" width="48" height="48" viewBox="0 0 48 48"><symbol id="a" viewBox="-24 -24 48 48"><path fill="none" d="M24-24h-48v48h48z"/><path d="M-5 6V-6h6V6h-6zm-6.25 3L-12 7h3v2h-2.25zM-14 .542l6.191.475L-7.1 6H-10l-4-5.458zM7 6V1h9v5H7zM-17.018-8s-1.836 3.664-.916 5.561c-.005 1.337 5.606 7.681 5.606 7.681l-3.09.022L-13.01 10H15s3-.001 3-3V-5.299L16.796-8H15c.017.145 0 1.853 0 2 0 2.033-1.467 3.237-3.5 3.237C9.466-2.763 8-3.967 8-6c0-.147-.016-1.855 0-2H-9c.018.145 0 1.853 0 2 0 2.033-1.434 3.237-3.466 3.237C-14.5-2.763-16-3.967-16-6c0-.147-.016-1.855 0-2h-1.018z"/><path d="M-4 1h4v-6h-4zM-14-6.5a1.5 1.5 0 1 1 3 0 1.5 1.5 0 0 1-3 0zm-1 0a2.5 2.5 0 1 0 5 0 2.5 2.5 0 0 0-5 0zM10-6.5a1.5 1.5 0 1 1 2.999.003A1.5 1.5 0 0 1 10-6.5zm-1 .002a2.5 2.5 0 1 0 4.998-.002A2.5 2.5 0 0 0 9-6.498z"/></symbol><use xlink:href="#a" width="48" height="48" x="-24" y="-24" transform="matrix(1 0 0 -1 24 24)" overflow="visible"/></svg>