<svg xmlns="http://www.w3.org/2000/svg" xmlns:xlink="http://www.w3.org/1999/xlink" width="48" height="48" viewBox="0 0 48 48"><symbol id="a" viewBox="-24 -24 48 48"><path fill="none" d="M24-24h-48v48h48z"/><path d="M2.579 2.625c.016-.023 0 3.986 0 3.986s-3.08 0-3.96-.236c-1.608-.441-6.665-3.75-6.665-3.75H2.579zm1.25 0h9.961s-2.835 3.533-3.409 3.818c-2.594.479-6.552.168-6.552.168s-.017-4.008 0-3.986zM-18.22 1.234l6.564 1.059s7.648 4.855 9.385 5.332c1.707.744 9.02.744 13.948 0 1.56-.234 7.801-4.758 8.806-6.641l.768-5.812-.469-.459-2.969-.114c.422 2.821-1.828 5.097-4.632 4.641-2.641-.429-3.728-2.636-3.258-5.129h-20.286c.461 2.494-.632 4.714-3.281 5.145C-16.5-.28-18.818-2.633-18.26-5.5h-1.053s-2.482 0-1.827 2.024c.293 1.546 2.419 4.058 2.92 4.71z" fill="#f60"/><path d="M-14.296-1.75c-1.703 0-3.125-1.423-3.125-3.125 0-1.703 1.422-3.125 3.125-3.125s3.125 1.422 3.125 3.125-1.422 3.125-3.125 3.125zm0-4.5c-.749 0-1.375.626-1.375 1.375s.626 1.375 1.375 1.375 1.375-.625 1.375-1.375c0-.749-.626-1.375-1.375-1.375zM13.829-1.75c-1.703 0-3.125-1.423-3.125-3.125C10.704-6.578 12.126-8 13.829-8s3.125 1.422 3.125 3.125-1.422 3.125-3.125 3.125zm0-4.5c-.749 0-1.375.626-1.375 1.375S13.08-3.5 13.829-3.5s1.375-.625 1.375-1.375c0-.749-.626-1.375-1.375-1.375z" fill="#f60"/></symbol><use xlink:href="#a" width="48" height="48" x="-24" y="-24" transform="matrix(1 0 0 -1 24 24)" overflow="visible"/></svg>