<svg xmlns="http://www.w3.org/2000/svg" xmlns:xlink="http://www.w3.org/1999/xlink" width="48" height="48" viewBox="0 0 48 48"><symbol id="a" viewBox="-24 -24 48 48"><path fill="none" d="M24-24h-48v48h48z"/><path d="M-18 7.08l7 2.92V7.125zM-18.901.769L-13 1.904V5c0-.016-4.484 0-4.484 0L-18.901.769zM-11-1h31v-3.812L15.217-6c-.039 2.045-1.688 3.299-3.721 3.299S7.816-3.967 7.816-6H-7.852c0 2.033-1.648 3.299-3.681 3.299S-15.214-3.967-15.214-6H-20l-1 1V.131L-18.264 6H-11v-7z"/><path d="M9.941-6.32a1.536 1.536 0 1 1 3.073.003A1.536 1.536 0 0 1 9.94-6.32zm-1.159 0a2.697 2.697 0 1 0 5.394 0 2.697 2.697 0 0 0-5.394 0zM-13.069-6.382a1.537 1.537 0 1 1 3.074-.002 1.537 1.537 0 0 1-3.074.002zm-1.16 0a2.696 2.696 0 1 0 5.392 0 2.696 2.696 0 0 0-5.392 0zM17 11c2 0 3-1 3-3V0H-9.931v11H17z"/></symbol><use xlink:href="#a" width="48" height="48" x="-24" y="-24" transform="matrix(1 0 0 -1 24 24)" overflow="visible"/></svg>