<?xml version="1.0" encoding="UTF-8"?>
<!DOCTYPE svg PUBLIC "-//W3C//DTD SVG 1.1//EN" "http://www.w3.org/Graphics/SVG/1.1/DTD/svg11.dtd">
<!-- Creator: CorelDRAW 2019 (64-Bit) -->
<svg xmlns="http://www.w3.org/2000/svg" xml:space="preserve" width="10.9922in" height="3.01146in" version="1.1" style="shape-rendering:geometricPrecision; text-rendering:geometricPrecision; image-rendering:optimizeQuality; fill-rule:evenodd; clip-rule:evenodd"
viewBox="0 0 541.22 148.27"
 xmlns:xlink="http://www.w3.org/1999/xlink">
 <defs>
  <style type="text/css">
   <![CDATA[
    .fil4 {fill:#FEFEFE}
    .fil0 {fill:#FFCC29}
    .fil1 {fill:#ED3237}
    .fil5 {fill:#D84196}
    .fil2 {fill:#ED3237;fill-rule:nonzero}
    .fil3 {fill:#D84196;fill-rule:nonzero}
   ]]>
  </style>
 </defs>
 <g id="Layer_x0020_1">
  <metadata id="CorelCorpID_0Corel-Layer"/>
  <path class="fil0" d="M270.03 57.7c23.87,0 51.13,-3.97 74.92,-6.35 25.68,-2.57 50.71,-3.55 76.89,-3.55l26.96 0.09c-0.96,-0.07 -12.25,-3.35 -15.51,-4.21 -5.6,-1.48 -11.01,-2.73 -16.49,-3.98 -56.52,-12.94 -143.5,-24.9 -198.85,0.3 -4.38,1.99 -16.61,8.31 -18.74,11.03 11.1,5.87 54.61,6.68 70.82,6.68z"/>
  <path class="fil1" d="M509.66 44.72c-8.64,11.48 -58.21,7.09 -63.04,16.4 38.26,-1.33 73.33,12.37 87.26,47.47 1.7,4.28 2.77,9.43 4.36,13.28 3.31,-4.9 3.58,-17.6 2.16,-23.92 -2.26,-10.08 -9.45,-18.66 -15.64,-26.77 -6.54,-8.57 -12.58,-14.69 -15.11,-26.47zm-485.66 86.4c-1.06,-11.97 -1.43,-19.03 3.39,-29.4 11.69,-25.15 41.87,-31.02 67.56,-34.4 20.53,-2.7 42.55,-4.23 63.64,-4.81 11.04,-0.3 22.3,-0.76 33.49,-0.84 10.87,-0.07 22.53,0.46 33.28,-0.08 -31.18,-4.39 -41.22,-7.21 -75.66,-8.9 -26.09,-1.28 -54.4,-0.42 -79.52,3.55 -21.21,3.36 -49.14,10.07 -64.73,20.12 -5.67,3.65 -6.62,6.09 -4.2,14.34 1.46,4.99 4.01,10.45 6.37,14.84 2.14,3.97 12.56,22.37 16.38,25.57zm131.05 -86.79l40.44 0.08c1.87,-0 17.05,-8.32 22.44,-10.64 53.67,-23.12 118.74,-19.78 174.13,-5.65 33.26,8.48 69.21,18.71 105.5,11.75 2.55,-0.49 4.03,-0.76 5.83,-1.93 -19,-1.37 -33.64,-2.23 -51.98,-6.29 -61.56,-13.62 -81.81,-31.65 -156.77,-31.65 -44.25,0 -100.36,14.38 -136.28,41.24l-3.32 3.09z"/>
  <path class="fil2" d="M126.36 81.45l3.56 0 16.33 62.66 4.09 0 0 1.7 -20.46 0 0 -1.7 3.87 0 -4.19 -16.07 -11.96 0 -2.51 11.09c-0.13,0.52 -0.2,0.95 -0.2,1.33 0,2.43 1.2,3.64 3.61,3.64l1.7 0 0 1.7 -12.97 0 0 -1.7 1.6 0c2.21,0 3.64,-1.46 4.27,-4.39l13.25 -58.27zm-3.18 22.1l-5.19 22.8 11.14 0 -5.75 -22.8 -0.2 0zm22.37 -21.2l20.52 0 0 1.7 -4.09 0 10.46 41.13 0.2 0 8.2 -36.54c0.13,-0.4 0.2,-0.91 0.2,-1.56 0,-2.01 -1.05,-3.03 -3.14,-3.03l-2.31 0 0 -1.7 12.97 0 0 1.7 -1.31 0c-2.36,0 -3.92,1.71 -4.67,5.12l-12.92 57.54 -3.86 0 -16.25 -62.66 -3.99 0 0 -1.7zm45.6 0l37.02 0 0 16.86 -1.8 0c-0.96,-10.11 -4.49,-15.17 -10.58,-15.17l0 60.07 4.69 0 0 1.7 -21.45 0 0.1 -1.7 4.39 0 0 -60.07c-3.23,0.2 -5.7,1.76 -7.43,4.72 -1.75,2.94 -2.79,6.42 -3.14,10.44l-1.8 0 0 -16.86zm61.05 -0.7c5.69,0 10.23,2.86 13.64,8.58 3.41,5.74 5.12,13.42 5.12,23.1 0,11.09 -1.81,19.39 -5.44,24.91 -3.63,5.5 -8.13,8.27 -13.52,8.27 -3.48,0 -6.74,-1.23 -9.75,-3.68 -3.03,-2.44 -5.36,-5.87 -6.97,-10.29 -1.63,-4.41 -2.44,-10.81 -2.44,-19.21 0,-9.45 1.78,-17.08 5.34,-22.92 3.56,-5.84 8.13,-8.76 13.72,-8.76l0.3 0zm-5.29 9.26l0 46.72c0,2.53 0.42,4.37 1.26,5.54 0.85,1.16 2.2,1.75 4.04,1.75 3.24,0 4.87,-2.43 4.87,-7.28l0 -48.01c0,-4.17 -1.71,-6.27 -5.16,-6.27 -3.34,0 -5.02,2.53 -5.02,7.57zm34.03 -7.77l3.19 0c3.66,0 8.03,-0.4 13.11,-1.2 0.37,-0.07 0.58,-0.1 0.68,-0.1l1.28 0 0 62.27 6.69 0 0 1.7 -24.95 0 0 -1.7 6.98 0 0 -59.27 -6.98 0 0 -1.7zm50.46 -1.5c4.89,0 8.93,2.96 12.11,8.9 3.18,5.94 4.77,13.65 4.77,23.12 0,9.48 -1.61,17.31 -4.84,23.53 -3.23,6.2 -7.2,9.31 -11.89,9.31 -4.67,0 -8.65,-3.01 -11.91,-9.03 -3.26,-6.02 -4.89,-13.5 -4.89,-22.45 0,-10.18 1.68,-18.29 5.04,-24.33 3.36,-6.04 7.15,-9.05 11.41,-9.05l0.2 0zm4.61 52.27l0 -39.35c0,-7.48 -1.45,-11.23 -4.32,-11.23 -1.8,0 -3.03,0.98 -3.68,2.94 -0.65,1.96 -0.98,5.22 -0.98,9.8l0 38.37c0,6.9 1.58,10.36 4.76,10.36 2.81,0 4.22,-3.63 4.22,-10.89z"/>
  <path class="fil3" d="M385.66 134.8l1.24 0c-1.33,7.01 -4.72,10.51 -10.16,10.51 -3.81,0 -6.9,-1.51 -9.27,-4.51 -2.37,-3 -3.56,-6.95 -3.56,-11.82 0,-4.67 1.24,-8.56 3.72,-11.65 2.49,-3.09 5.57,-4.64 9.26,-4.64 2.79,0 5,0.73 6.65,2.19 1.65,1.47 2.48,3.42 2.48,5.84 0,1.41 -0.43,2.58 -1.29,3.54 -0.86,0.95 -1.93,1.42 -3.21,1.42 -1.08,0 -2.02,-0.38 -2.8,-1.14 -0.78,-0.77 -1.17,-1.67 -1.17,-2.71 0,-2.47 1.16,-3.94 3.47,-4.39 1.02,-0.19 1.53,-0.56 1.53,-1.11 0,-0.6 -0.57,-1.14 -1.72,-1.64 -1.16,-0.5 -2.09,-0.75 -2.83,-0.75 -1.22,0 -2.15,0.29 -2.82,0.89 -0.67,0.6 -1.12,1.48 -1.36,2.64 -0.23,1.17 -0.35,3.18 -0.35,6.03l0 14.37c0,4 1.42,6 4.28,6 1.75,0 3.32,-0.78 4.7,-2.34 1.39,-1.56 2.46,-3.8 3.21,-6.72zm4.9 -6.03c0,-4.5 1.27,-8.28 3.78,-11.35 2.52,-3.05 5.61,-4.59 9.27,-4.59 3.58,0 6.64,1.55 9.18,4.62 2.54,3.09 3.82,6.81 3.82,11.17 0,4.87 -1.24,8.87 -3.71,11.99 -2.47,3.13 -5.6,4.7 -9.37,4.7 -3.78,0 -6.89,-1.53 -9.33,-4.61 -2.43,-3.07 -3.65,-7.04 -3.65,-11.93zm9.56 -9.32l0 19.49c0,3.47 1.12,5.21 3.35,5.21 2.4,0 3.59,-1.64 3.59,-4.91l0 -19.25c0,-2.18 -0.26,-3.71 -0.77,-4.6 -0.51,-0.88 -1.42,-1.31 -2.75,-1.31 -1.24,0 -2.12,0.41 -2.64,1.25 -0.52,0.83 -0.78,2.2 -0.78,4.12zm31.46 -6.11l0 4.1 0.15 0c1.8,-3.17 4.23,-4.76 7.3,-4.76 3.09,0 5.23,1.76 6.42,5.3 1.36,-2.23 2.58,-3.67 3.66,-4.32 1.07,-0.66 2.4,-0.99 3.98,-0.99 1.96,0 3.6,0.75 4.91,2.27 1.31,1.51 1.97,3.41 1.97,5.69l0 22.91 2.85 0 0 1.24 -13.28 0 0 -1.24 1.97 0 0 -23.5c0,-2.68 -0.63,-4.01 -1.91,-4.01 -1.11,0 -2.02,0.84 -2.76,2.53 -0.73,1.68 -1.1,2.9 -1.1,3.65l0 21.34 1.97 0 0 1.24 -12.41 0 0 -1.24 1.97 0 0 -24.67c0,-0.83 -0.16,-1.51 -0.49,-2.04 -0.33,-0.54 -0.75,-0.8 -1.29,-0.8 -0.9,0 -1.78,0.74 -2.63,2.21 -0.86,1.47 -1.29,3.03 -1.29,4.66l0 20.64 1.97 0 0 1.24 -13.58 0 0 -1.24 3.14 0 0 -28.98 -3.14 0 0 -1.24 11.61 0z"/>
  <path class="fil4" d="M349.3 123.31c6.89,0 12.48,5.59 12.48,12.48 0,6.89 -5.59,12.48 -12.48,12.48 -6.89,0 -12.48,-5.59 -12.48,-12.48 0,-6.89 5.59,-12.48 12.48,-12.48z"/>
  <path class="fil5" d="M349.3 125.88c5.48,0 9.92,4.44 9.92,9.92 0,5.48 -4.44,9.92 -9.92,9.92 -5.48,0 -9.92,-4.44 -9.92,-9.92 0,-5.48 4.44,-9.92 9.92,-9.92z"/>
 </g>
</svg>
