<?xml version="1.0" encoding="UTF-8"?>
<!DOCTYPE svg PUBLIC "-//W3C//DTD SVG 1.1//EN" "http://www.w3.org/Graphics/SVG/1.1/DTD/svg11.dtd">
<!-- Creator: CorelDRAW 2019 (64-Bit) -->
<svg xmlns="http://www.w3.org/2000/svg" xml:space="preserve" width="10.9922in" height="2.66316in" version="1.1" style="shape-rendering:geometricPrecision; text-rendering:geometricPrecision; image-rendering:optimizeQuality; fill-rule:evenodd; clip-rule:evenodd"
viewBox="0 0 487.97 118.23"
 xmlns:xlink="http://www.w3.org/1999/xlink">
 <defs>
  <style type="text/css">
   <![CDATA[
    .fil0 {fill:#FFCC29}
    .fil1 {fill:#ED3237}
    .fil2 {fill:#ED3237;fill-rule:nonzero}
   ]]>
  </style>
 </defs>
 <g id="Layer_x0020_1">
  <metadata id="CorelCorpID_0Corel-Layer"/>
  <path class="fil0" d="M243.47 52.02c21.52,0 46.1,-3.58 67.55,-5.73 23.15,-2.32 45.72,-3.2 69.33,-3.2l24.31 0.08c-0.86,-0.06 -11.04,-3.02 -13.99,-3.8 -5.05,-1.33 -9.92,-2.46 -14.87,-3.59 -50.96,-11.67 -129.38,-22.45 -179.29,0.27 -3.95,1.8 -14.97,7.49 -16.9,9.94 10,5.29 49.23,6.02 63.85,6.02z"/>
  <path class="fil1" d="M459.52 40.32c-7.79,10.35 -52.48,6.4 -56.84,14.78 34.5,-1.2 66.11,11.16 78.68,42.8 1.53,3.86 2.5,8.5 3.93,11.97 2.99,-4.42 3.23,-15.87 1.95,-21.56 -2.04,-9.09 -8.52,-16.82 -14.1,-24.13 -5.9,-7.73 -11.34,-13.24 -13.62,-23.86zm-437.88 77.9c-0.96,-10.79 -1.29,-17.16 3.05,-26.51 10.54,-22.68 37.75,-27.97 60.92,-31.01 18.51,-2.43 38.36,-3.81 57.38,-4.33 9.96,-0.27 20.11,-0.69 30.19,-0.75 9.8,-0.07 20.31,0.42 30,-0.07 -28.12,-3.96 -37.17,-6.5 -68.22,-8.02 -23.52,-1.15 -49.05,-0.38 -71.7,3.21 -19.12,3.03 -44.3,9.08 -58.36,18.14 -5.11,3.29 -5.97,5.49 -3.79,12.93 1.32,4.5 3.62,9.42 5.75,13.38 1.92,3.58 11.32,20.17 14.77,23.05zm118.16 -78.26l36.47 0.08c1.69,-0 15.37,-7.5 20.23,-9.59 48.39,-20.84 107.06,-17.84 157,-5.1 29.99,7.65 62.41,16.87 95.13,10.59 2.3,-0.44 3.64,-0.69 5.26,-1.74 -17.13,-1.23 -30.33,-2.01 -46.87,-5.67 -55.51,-12.28 -73.76,-28.54 -141.35,-28.54 -39.89,0 -90.49,12.96 -122.87,37.18l-3 2.79z"/>
  <path class="fil2" d="M121.52 88.13l9.19 0 -4.71 18.38c-0.41,1.82 -0.62,2.98 -0.62,3.51 0,1.12 0.37,1.68 1.13,1.68 1.48,0 3.1,-2.18 4.88,-6.53l1.81 1.34c-2.68,6.21 -6.09,9.31 -10.21,9.31 -3.18,0 -5.26,-1.54 -6.21,-4.64 -2.55,3.1 -5.51,4.64 -8.88,4.64 -2.77,0 -5.12,-0.94 -7.02,-2.84 -1.9,-1.9 -2.86,-4.34 -2.86,-7.3 0,-4.73 1.73,-8.96 5.16,-12.68 3.44,-3.72 7.27,-5.58 11.51,-5.58 2.87,0 4.83,1.35 5.88,4.06l0.14 0 0.82 -3.35zm-6.14 1.68c-1.33,0 -2.35,0.55 -3.11,1.66 -0.75,1.11 -1.84,4.4 -3.28,9.87 -1.43,5.47 -2.16,8.78 -2.16,9.92 0,1.63 0.89,2.46 2.67,2.46 1.39,0 2.86,-0.75 4.42,-2.24 1.56,-1.49 2.87,-4.38 3.93,-8.66 1.06,-4.28 1.59,-7.19 1.59,-8.74 0,-1.07 -0.37,-2.05 -1.12,-2.94 -0.76,-0.89 -1.74,-1.33 -2.94,-1.33zm20.97 8.02l-1.75 -0.89c2.94,-6.35 6.92,-9.52 11.96,-9.52 1.82,0 3.25,0.45 4.3,1.36 1.05,0.91 1.57,1.92 1.57,3.04 0,1.36 -0.35,3.46 -1.03,6.28l-2.12 8.46c-0.09,0.19 -0.22,0.75 -0.41,1.68 -0.19,0.93 -0.28,1.6 -0.28,1.98 0,0.57 0.23,1.1 0.68,1.57 0.44,0.48 1.13,0.71 2.06,0.71 3.01,0 6.04,-1.77 9.11,-5.33 3.05,-3.56 4.59,-6.97 4.59,-10.25 0,-1.22 -0.44,-1.84 -1.34,-1.84 -1.5,0 -2.54,-0.1 -3.14,-0.3 -0.59,-0.21 -1.07,-0.66 -1.46,-1.38 -0.37,-0.7 -0.56,-1.42 -0.56,-2.15 0,-1.07 0.35,-1.98 1.04,-2.73 0.7,-0.76 1.64,-1.13 2.86,-1.13 1.57,0 2.84,0.61 3.81,1.81 0.97,1.21 1.45,2.82 1.45,4.85 0,5.58 -1.97,10.6 -5.92,15.06 -3.95,4.46 -8.65,6.69 -14.09,6.69 -2.63,0 -4.63,-0.59 -5.96,-1.81 -1.33,-1.2 -1.99,-2.66 -1.99,-4.37 0,-1 0.24,-2.54 0.75,-4.6l2.6 -10.49c0.31,-1.29 0.48,-2.13 0.48,-2.53 0,-0.75 -0.3,-1.12 -0.89,-1.12 -1.67,0 -3.78,2.31 -6.32,6.92zm60.59 -9.79l-0.48 2.11 -7.13 0 -4.74 18.65c-0.21,0.84 -0.31,1.53 -0.31,2.05 0,0.89 0.47,1.33 1.4,1.33 3.12,0 5.92,-2.63 8.41,-7.89l2.09 0.69c-2.87,6.94 -7.34,10.41 -13.43,10.41 -2.23,0 -3.99,-0.55 -5.27,-1.66 -1.29,-1.11 -1.94,-2.37 -1.94,-3.81 0,-0.63 0.03,-1.21 0.11,-1.71 0.07,-0.51 0.38,-1.92 0.96,-4.22l3.42 -13.84 -4.88 0 0.55 -2.11 4.92 0 1.88 -7.11 9.36 -0.92 -2.02 8.03 7.13 0zm15.4 27.79c-3.82,0 -6.95,-0.99 -9.37,-2.98 -2.42,-1.99 -3.64,-4.71 -3.64,-8.15 0,-4.71 2.08,-8.77 6.24,-12.17 4.15,-3.4 8.76,-5.11 13.81,-5.11 3.75,0 6.88,0.93 9.36,2.82 2.47,1.88 3.72,4.58 3.72,8.1 0,4.65 -2.01,8.72 -6.03,12.23 -4.02,3.51 -8.72,5.26 -14.09,5.26zm6.28 -26.53c-1.7,0 -3.17,0.62 -4.41,1.87 -1.22,1.24 -2.47,4.41 -3.75,9.51 -1.27,5.09 -1.91,8.14 -1.91,9.12 0,1.15 0.38,2.13 1.14,2.94 0.77,0.79 1.81,1.19 3.12,1.19 1.74,0 3.23,-0.56 4.48,-1.67 1.26,-1.12 2.55,-4.31 3.92,-9.58 1.35,-5.27 2.03,-8.42 2.03,-9.44 0,-2.62 -1.54,-3.93 -4.62,-3.93zm39.86 -10.21l-7.1 34.06 6.78 0 -0.38 1.9 -20.86 0 0.38 -1.9 6.21 0 6.34 -30.72 -6.94 0 0.38 -1.85c4.61,-0.23 8.1,-0.48 10.49,-0.76l4.72 -0.73zm15.11 36.58c-2.22,0 -4.19,-1.1 -5.91,-3.3 -1.71,-2.2 -2.57,-5.22 -2.57,-9.03 0,-5.72 1.74,-11.2 5.22,-16.42 3.48,-5.22 7.2,-7.83 11.15,-7.83 2.58,0 4.66,1.12 6.22,3.35 1.57,2.23 2.36,4.97 2.36,8.19 0,6.06 -1.7,11.74 -5.11,17.06 -3.42,5.32 -7.2,7.97 -11.36,7.97zm-1.6 -4.79l0 0.35c0,0.7 0.23,1.3 0.69,1.8 0.46,0.49 1.06,0.74 1.8,0.74 1.1,0 1.98,-0.56 2.63,-1.7 0.65,-1.14 1.81,-5.61 3.5,-13.41 1.68,-7.81 2.52,-12.85 2.52,-15.12 0,-1.7 -0.76,-2.55 -2.28,-2.55 -1.03,0 -1.89,0.53 -2.57,1.57 -0.68,1.05 -1.25,2.55 -1.68,4.5l-2.65 11.87c-1.29,5.92 -1.95,9.91 -1.95,11.95zm19.64 0.35c0,-1.16 0.42,-2.15 1.26,-2.95 0.84,-0.81 1.85,-1.22 3.02,-1.22 1.17,0 2.19,0.41 3.04,1.23 0.86,0.82 1.29,1.82 1.29,3 0,1.21 -0.44,2.24 -1.32,3.1 -0.87,0.86 -1.86,1.29 -2.96,1.29 -1.19,0 -2.22,-0.43 -3.06,-1.32 -0.85,-0.89 -1.28,-1.92 -1.28,-3.12zm36.28 -3.01l1.29 1.11c-3.25,4.23 -7.32,6.34 -12.22,6.34 -3.28,0 -5.85,-0.83 -7.7,-2.52 -1.86,-1.68 -2.78,-3.66 -2.78,-5.94 0,-3.68 1.66,-6.95 5,-9.8 3.33,-2.86 7.01,-4.28 11.04,-4.28 2.18,0 4.05,0.44 5.6,1.34 1.55,0.9 2.33,2.07 2.33,3.53 0,1.06 -0.4,1.91 -1.19,2.55 -0.8,0.63 -1.68,0.94 -2.65,0.94 -0.85,0 -1.58,-0.26 -2.21,-0.77 -0.62,-0.52 -0.93,-1.09 -0.93,-1.72 0,-0.33 0.07,-0.8 0.22,-1.44 0.14,-0.63 0.21,-1.04 0.21,-1.22 0,-0.44 -0.18,-0.85 -0.55,-1.2 -0.36,-0.35 -0.82,-0.53 -1.41,-0.53 -2.2,0 -4.03,2.3 -5.5,6.93 -1.46,4.61 -2.19,7.59 -2.19,8.95 0,2.22 1.22,3.33 3.66,3.33 3.75,0 7.08,-1.87 9.97,-5.6zm15.79 7.45c-3.03,0 -5.51,-0.79 -7.44,-2.37 -1.92,-1.58 -2.89,-3.74 -2.89,-6.46 0,-3.74 1.65,-6.95 4.95,-9.66 3.29,-2.7 6.95,-4.05 10.96,-4.05 2.98,0 5.46,0.74 7.43,2.24 1.96,1.49 2.95,3.63 2.95,6.43 0,3.69 -1.59,6.92 -4.78,9.7 -3.19,2.78 -6.92,4.17 -11.18,4.17zm4.98 -21.05c-1.35,0 -2.52,0.49 -3.5,1.48 -0.97,0.98 -1.96,3.5 -2.98,7.55 -1.01,4.04 -1.52,6.46 -1.52,7.23 0,0.92 0.31,1.69 0.91,2.33 0.61,0.63 1.43,0.94 2.48,0.94 1.38,0 2.56,-0.44 3.55,-1.32 1,-0.89 2.03,-3.42 3.11,-7.6 1.07,-4.18 1.61,-6.68 1.61,-7.49 0,-2.08 -1.22,-3.12 -3.66,-3.12zm15.88 20.43l5.04 -19.75 -4.28 0 0.41 -1.67 3.26 0c1.63,0 3,-0.05 4.12,-0.14l3.23 -0.35 1.17 0 -1.22 4.55 0.11 0.11c2.77,-3.11 5.7,-4.66 8.75,-4.66 3.41,0 5.14,1.65 5.17,4.93 2.14,-2.16 3.86,-3.53 5.18,-4.09 1.32,-0.56 2.59,-0.84 3.82,-0.84 1.68,0 2.96,0.46 3.84,1.38 0.87,0.92 1.31,1.98 1.31,3.17 0,0.87 -0.19,2 -0.55,3.39l-1.92 7.45c-0.47,1.84 -0.7,2.94 -0.7,3.3 0,0.49 0.26,0.73 0.79,0.73 1.75,0 3.61,-1.91 5.55,-5.72l1.6 0.28c-2.58,5.71 -6.09,8.55 -10.53,8.55 -1.27,0 -2.31,-0.38 -3.14,-1.15 -0.83,-0.77 -1.25,-1.72 -1.25,-2.86 0,-1.04 0.15,-2.09 0.43,-3.17l2.36 -8.97c0.4,-1.52 0.59,-2.5 0.59,-2.95 0,-1.03 -0.33,-1.54 -1,-1.54 -0.25,0 -0.54,0.06 -0.84,0.19 -0.31,0.13 -0.65,0.32 -1.03,0.57 -0.36,0.23 -0.75,0.54 -1.17,0.9 -0.42,0.36 -0.87,0.78 -1.36,1.24 -0.45,0.47 -0.93,1 -1.46,1.57 -0.7,0.76 -1.24,1.84 -1.6,3.23l-3.19 12.33 -7.27 0 2.99 -11.19c0.88,-3.27 1.41,-5.26 1.55,-5.97 0.16,-0.71 0.23,-1.15 0.23,-1.31 0,-0.99 -0.31,-1.49 -0.95,-1.49 -0.55,0 -1.17,0.2 -1.84,0.62 -0.67,0.42 -1.32,0.92 -1.96,1.54 -0.65,0.6 -1.3,1.28 -1.99,2.02l-0.87 0.97c-0.26,0.31 -0.4,0.55 -0.43,0.71l-3.66 14.11 -7.26 0z"/>
 </g>
</svg>
