<?xml version="1.0" encoding="UTF-8"?>
<!DOCTYPE svg PUBLIC "-//W3C//DTD SVG 1.1//EN" "http://www.w3.org/Graphics/SVG/1.1/DTD/svg11.dtd">
<!-- Creator: CorelDRAW 2019 (64-Bit) -->
<svg xmlns="http://www.w3.org/2000/svg" xml:space="preserve" width="10.9922in" height="2.66316in" version="1.1" style="shape-rendering:geometricPrecision; text-rendering:geometricPrecision; image-rendering:optimizeQuality; fill-rule:evenodd; clip-rule:evenodd"
viewBox="0 0 541.29 131.14"
 xmlns:xlink="http://www.w3.org/1999/xlink">
 <defs>
  <style type="text/css">
   <![CDATA[
    .fil0 {fill:#FFCC29}
    .fil1 {fill:#ED3237}
    .fil2 {fill:#ED3237;fill-rule:nonzero}
   ]]>
  </style>
 </defs>
 <g id="Layer_x0020_1">
  <metadata id="CorelCorpID_0Corel-Layer"/>
  <path class="fil0" d="M270.07 57.71c23.87,0 51.14,-3.97 74.93,-6.35 25.68,-2.57 50.71,-3.55 76.9,-3.55l26.97 0.09c-0.96,-0.07 -12.25,-3.35 -15.51,-4.21 -5.61,-1.48 -11.01,-2.73 -16.49,-3.98 -56.52,-12.95 -143.52,-24.9 -198.88,0.3 -4.38,1.99 -16.61,8.31 -18.74,11.03 11.1,5.87 54.61,6.68 70.83,6.68z"/>
  <path class="fil1" d="M509.73 44.73c-8.64,11.48 -58.22,7.1 -63.05,16.4 38.26,-1.33 73.34,12.37 87.28,47.48 1.7,4.28 2.77,9.43 4.36,13.28 3.31,-4.9 3.58,-17.6 2.16,-23.92 -2.26,-10.08 -9.45,-18.66 -15.64,-26.77 -6.54,-8.57 -12.58,-14.69 -15.11,-26.47zm-485.72 86.42c-1.06,-11.97 -1.43,-19.03 3.39,-29.4 11.69,-25.16 41.87,-31.03 67.57,-34.4 20.53,-2.7 42.55,-4.23 63.65,-4.81 11.04,-0.3 22.31,-0.76 33.49,-0.84 10.87,-0.07 22.53,0.46 33.28,-0.08 -31.19,-4.39 -41.23,-7.22 -75.67,-8.9 -26.09,-1.28 -54.41,-0.42 -79.53,3.56 -21.21,3.36 -49.14,10.07 -64.74,20.12 -5.67,3.65 -6.62,6.09 -4.2,14.34 1.46,4.99 4.01,10.45 6.37,14.84 2.14,3.97 12.56,22.37 16.39,25.57zm131.07 -86.81l40.45 0.08c1.87,-0 17.05,-8.32 22.44,-10.64 53.68,-23.12 118.75,-19.78 174.15,-5.65 33.26,8.49 69.22,18.71 105.52,11.75 2.55,-0.49 4.03,-0.76 5.83,-1.93 -19,-1.37 -33.65,-2.23 -51.99,-6.29 -61.57,-13.62 -81.82,-31.65 -156.79,-31.65 -44.25,0 -100.38,14.38 -136.3,41.24l-3.32 3.09z"/>
  <path class="fil2" d="M128.06 107.52c-2.12,0 -3.57,0.65 -4.35,1.94 -0.41,0.62 -0.75,1.41 -1.01,2.37 -0.26,0.96 -0.39,1.82 -0.39,2.6 0,1.03 0.3,1.75 0.89,2.13 0.59,0.39 1.64,0.58 3.14,0.58l2.64 0 2.17 -9.62 -3.1 0zm0 13.42l-2.48 3.41c-0.57,0.78 -1.11,1.38 -1.63,1.82 -0.52,0.44 -1.1,0.79 -1.75,1.05 -0.65,0.26 -1.4,0.43 -2.25,0.5 -0.85,0.08 -1.9,0.12 -3.14,0.12 -6.72,0 -10.09,-2.61 -10.09,-7.84 0,-1.71 0.23,-3.65 0.7,-5.82 0.47,-2.17 1.09,-4.19 1.86,-6.05 0.72,-1.81 1.72,-3.34 2.99,-4.58 1.27,-1.24 2.73,-2.15 4.38,-2.72 0.67,-0.26 1.45,-0.43 2.33,-0.5 0.88,-0.08 2.15,-0.12 3.8,-0.12l7.45 0c1.14,0 1.95,-0.21 2.44,-0.62 0.49,-0.41 0.74,-1.14 0.74,-2.17 0,-0.72 -0.14,-1.18 -0.43,-1.36 -0.28,-0.18 -0.94,-0.27 -1.98,-0.27l-10.01 0c-2.38,-0.05 -3.57,-0.83 -3.57,-2.33 0,-0.57 0.16,-1.4 0.47,-2.48l1.09 -4.73 19.16 0c1.14,0 2.09,0.01 2.87,0.04 0.78,0.03 1.44,0.08 1.98,0.16 0.54,0.08 1,0.18 1.36,0.31 0.36,0.13 0.75,0.3 1.16,0.5 1.09,0.57 1.94,1.37 2.56,2.41 0.62,1.03 0.93,2.2 0.93,3.49 0,0.57 -0.05,1.19 -0.16,1.86 -0.1,0.67 -0.28,1.53 -0.54,2.56l-5.35 23.66c-0.16,0.62 -0.26,1.1 -0.31,1.44 -0.05,0.34 -0.08,0.63 -0.08,0.89 0,1.34 0.78,2.09 2.33,2.25l-0.39 1.78 -13.42 0c-2.53,0 -3.8,-0.8 -3.8,-2.41 0,-0.57 0.08,-1.16 0.23,-1.78l0.54 -2.48zm60.52 -34.68c1.09,0 1.86,0.14 2.33,0.43 0.47,0.28 0.7,0.79 0.7,1.51 0,0.31 -0.06,0.66 -0.19,1.05 -0.13,0.39 -0.4,0.97 -0.81,1.75l-19.32 36.62 -14.35 0 -1.86 -35.15c-0.1,-1.5 -0.36,-2.55 -0.78,-3.14 -0.41,-0.59 -1.22,-1.02 -2.41,-1.28l0.47 -1.78 11.48 0c1.19,0 2.03,0.03 2.52,0.08 0.49,0.05 0.89,0.18 1.2,0.39 0.93,0.47 1.45,1.42 1.55,2.87l0.16 18.62 6.36 -14.97c0.36,-0.88 0.61,-1.54 0.74,-1.98 0.13,-0.44 0.19,-0.84 0.19,-1.2 0,-1.03 -0.62,-1.71 -1.86,-2.02l0.47 -1.78 13.42 0zm8.22 9.31l-3.65 0 1.78 -7.99c3.31,-0.21 6.18,-1.09 8.61,-2.64 2.43,-1.55 4.27,-3.72 5.51,-6.52l6.6 0 -1.78 7.84 10.01 0 -1.32 5.9c-0.31,1.34 -0.74,2.25 -1.28,2.72 -0.54,0.47 -1.54,0.7 -2.99,0.7l-3.49 0c-1.29,0 -2.19,0.21 -2.68,0.62 -0.49,0.41 -0.87,1.28 -1.13,2.57l-3.1 13.55c-0.21,0.72 -0.34,1.28 -0.39,1.67 -0.05,0.39 -0.08,0.74 -0.08,1.05 0,0.89 0.34,1.49 1.01,1.8 0.67,0.31 1.91,0.47 3.72,0.47 1.66,0 2.78,-0.21 3.38,-0.62 0.59,-0.41 1.18,-1.22 1.75,-2.41l1.94 0 -2.41 10.19c-0.31,1.18 -0.72,1.99 -1.24,2.42 -0.52,0.44 -1.4,0.69 -2.64,0.74l-16.76 0c-1.97,0 -3.38,-0.34 -4.23,-1.01 -0.85,-0.67 -1.28,-1.76 -1.28,-3.26 0,-0.26 0.01,-0.5 0.04,-0.74 0.03,-0.23 0.06,-0.48 0.12,-0.74l5.97 -26.3zm49.81 -0.31c-2.22,0 -3.78,0.83 -4.66,2.48 -0.1,0.16 -0.19,0.34 -0.27,0.54 -0.08,0.21 -0.18,0.53 -0.31,0.97 -0.13,0.44 -0.3,1.05 -0.5,1.82 -0.21,0.78 -0.47,1.81 -0.78,3.1 -0.83,3.31 -1.4,5.87 -1.71,7.68 -0.31,1.81 -0.47,2.95 -0.47,3.41 0,2.02 1.19,3.03 3.57,3.03 1.97,0 3.41,-0.72 4.35,-2.17 0.31,-0.47 0.61,-1.14 0.89,-2.02 0.28,-0.88 0.71,-2.41 1.28,-4.58 0.21,-0.72 0.43,-1.67 0.66,-2.83 0.23,-1.16 0.47,-2.33 0.7,-3.49 0.23,-1.16 0.43,-2.21 0.58,-3.14 0.16,-0.93 0.23,-1.53 0.23,-1.78 0,-2.02 -1.19,-3.03 -3.57,-3.03zm1.32 -9.54c3.26,0 5.96,0.16 8.11,0.47 2.15,0.31 3.87,0.78 5.16,1.4 1.34,0.67 2.35,1.68 3.03,3.03 0.67,1.34 1.01,2.92 1.01,4.73 0,1.6 -0.17,3.48 -0.5,5.63 -0.34,2.15 -0.94,4.88 -1.82,8.19 -1.03,4.03 -2.11,7.29 -3.22,9.78 -1.11,2.48 -2.51,4.41 -4.19,5.78 -1.68,1.37 -3.79,2.29 -6.32,2.75 -2.53,0.47 -5.72,0.7 -9.54,0.7 -3.05,0 -5.65,-0.17 -7.8,-0.5 -2.15,-0.34 -3.89,-0.89 -5.24,-1.67 -1.35,-0.78 -2.33,-1.76 -2.95,-2.95 -0.62,-1.19 -0.93,-2.64 -0.93,-4.35 0,-1.5 0.18,-3.28 0.54,-5.35 0.36,-2.07 0.93,-4.66 1.71,-7.76 1.03,-4.09 2.12,-7.42 3.26,-10.01 1.14,-2.59 2.55,-4.6 4.23,-6.05 1.68,-1.45 3.75,-2.44 6.21,-2.99 2.46,-0.54 5.55,-0.81 9.27,-0.81zm25.43 12.35c0.08,-0.45 0.15,-0.83 0.22,-1.14 0.06,-0.31 0.09,-0.58 0.09,-0.83 0,-0.49 -0.12,-0.83 -0.37,-1.02 -0.25,-0.18 -0.76,-0.32 -1.54,-0.4 -1.19,-0.12 -1.79,-0.7 -1.79,-1.72 0,-0.16 0.02,-0.4 0.06,-0.71 0.04,-0.31 0.1,-0.63 0.18,-0.95l1.05 -4.74 13.54 0c2.01,0 3.02,0.66 3.02,1.97 0,0.16 -0.02,0.37 -0.06,0.62 -0.04,0.25 -0.1,0.49 -0.18,0.74l-7.57 33.18c-0.04,0.21 -0.07,0.4 -0.09,0.58 -0.02,0.18 -0.03,0.36 -0.03,0.52 0,1.03 0.64,1.66 1.91,1.91l-0.37 1.54 -11.26 0c-1.07,0 -1.83,-0.15 -2.28,-0.46 -0.45,-0.31 -0.68,-0.81 -0.68,-1.51 0,-0.21 0,-0.39 0,-0.55 0,-0.21 0.04,-0.47 0.12,-0.8l6.03 -26.22zm36.75 -3.32c-1.11,0 -2.04,0.32 -2.8,0.95 -0.76,0.64 -1.47,1.72 -2.12,3.24 -0.49,1.19 -0.98,2.56 -1.48,4.1 -0.49,1.54 -0.93,3.09 -1.32,4.63 -0.39,1.54 -0.7,3.02 -0.92,4.41 -0.23,1.41 -0.34,2.55 -0.34,3.46 0,2.72 1.13,4.07 3.39,4.07 0.7,0 1.32,-0.12 1.88,-0.37 0.55,-0.25 1.08,-0.66 1.57,-1.23 0.49,-0.58 0.95,-1.35 1.39,-2.32 0.43,-0.96 0.87,-2.16 1.32,-3.61 0.37,-1.15 0.73,-2.39 1.08,-3.73 0.35,-1.33 0.66,-2.61 0.92,-3.83 0.27,-1.21 0.48,-2.32 0.65,-3.32 0.16,-1.02 0.25,-1.81 0.25,-2.38 0,-2.72 -1.15,-4.07 -3.45,-4.07zm15.94 1.91c0,1.44 -0.14,3.1 -0.43,4.99 -0.29,1.89 -0.68,3.84 -1.17,5.85 -0.49,2.01 -1.06,4 -1.69,5.97 -0.64,1.97 -1.32,3.75 -2.06,5.36 -0.78,1.68 -1.69,3.12 -2.74,4.31 -1.05,1.19 -2.28,2.16 -3.69,2.92 -1.42,0.76 -3.06,1.31 -4.92,1.66 -1.87,0.35 -4.03,0.52 -6.49,0.52 -2.34,0 -4.28,-0.14 -5.82,-0.43 -1.54,-0.29 -2.86,-0.72 -3.97,-1.29 -1.44,-0.78 -2.53,-1.9 -3.29,-3.35 -0.76,-1.46 -1.14,-3.21 -1.14,-5.26 0,-1.15 0.09,-2.45 0.28,-3.91 0.18,-1.46 0.43,-2.99 0.74,-4.59 0.31,-1.6 0.69,-3.22 1.14,-4.86 0.45,-1.64 0.94,-3.24 1.48,-4.8 0.9,-2.59 1.91,-4.75 3.02,-6.49 1.11,-1.74 2.43,-3.16 3.97,-4.25 1.54,-1.09 3.32,-1.87 5.36,-2.34 2.03,-0.47 4.42,-0.71 7.17,-0.71 5.01,0 8.64,0.85 10.9,2.55 2.26,1.7 3.39,4.42 3.39,8.16zm1.11 22.34l7.88 0c2.01,0 3.02,0.64 3.02,1.91 0,0.41 -0.06,0.88 -0.18,1.42l-1.17 5.29 -7.94 0c-2.01,0 -3.02,-0.64 -3.02,-1.91 0,-0.21 0.04,-0.53 0.12,-0.98 0.08,-0.45 0.16,-0.82 0.25,-1.11l1.05 -4.62zm40.63 4.8c-0.21,0.86 -0.51,1.56 -0.92,2.09 -0.41,0.53 -1,0.96 -1.75,1.29 -0.76,0.33 -1.74,0.55 -2.95,0.68 -1.21,0.12 -2.7,0.18 -4.46,0.18 -3.08,0 -5.52,-0.15 -7.32,-0.46 -1.81,-0.31 -3.18,-0.85 -4.12,-1.63 -0.9,-0.74 -1.54,-1.57 -1.91,-2.49 -0.37,-0.92 -0.55,-2.04 -0.55,-3.35 0,-1.31 0.16,-2.9 0.49,-4.77 0.33,-1.87 0.75,-3.78 1.26,-5.72 0.51,-1.95 1.09,-3.8 1.72,-5.54 0.64,-1.74 1.28,-3.17 1.94,-4.28 0.53,-0.94 1.12,-1.73 1.75,-2.37 0.64,-0.64 1.36,-1.15 2.19,-1.54 0.82,-0.39 1.75,-0.67 2.8,-0.83 1.05,-0.16 2.27,-0.25 3.66,-0.25l13.17 0 -1.11 4.9c-0.16,0.66 -0.32,1.19 -0.46,1.58 -0.14,0.39 -0.34,0.7 -0.58,0.9 -0.25,0.21 -0.55,0.33 -0.92,0.37 -0.37,0.04 -0.86,0.06 -1.48,0.06l-4.49 0.06c-0.82,0 -1.51,0.04 -2.06,0.12 -0.55,0.08 -1.04,0.24 -1.45,0.46 -0.41,0.23 -0.75,0.54 -1.02,0.94 -0.27,0.41 -0.52,0.94 -0.77,1.6 -0.16,0.41 -0.34,0.96 -0.52,1.68 -0.18,0.72 -0.42,1.71 -0.71,2.98 -0.33,1.52 -0.56,2.67 -0.71,3.47 -0.14,0.8 -0.22,1.44 -0.22,1.93 0,1.19 0.42,2 1.26,2.45 0.84,0.45 2.37,0.68 4.59,0.68 1.89,0 3.22,-0.16 4,-0.49 0.78,-0.33 1.4,-0.98 1.85,-1.97l1.48 0 -1.66 7.26zm23.76 -21.85c-1.76,0 -3,0.66 -3.69,1.97 -0.08,0.12 -0.15,0.27 -0.22,0.43 -0.06,0.16 -0.14,0.42 -0.25,0.77 -0.1,0.35 -0.24,0.83 -0.4,1.45 -0.16,0.62 -0.37,1.44 -0.62,2.46 -0.66,2.63 -1.11,4.66 -1.35,6.09 -0.25,1.44 -0.37,2.34 -0.37,2.71 0,1.6 0.94,2.4 2.83,2.4 1.56,0 2.71,-0.57 3.45,-1.72 0.25,-0.37 0.48,-0.9 0.71,-1.6 0.23,-0.7 0.56,-1.91 1.02,-3.63 0.16,-0.57 0.34,-1.32 0.52,-2.25 0.18,-0.92 0.37,-1.85 0.55,-2.77 0.18,-0.92 0.34,-1.75 0.46,-2.49 0.12,-0.74 0.18,-1.21 0.18,-1.42 0,-1.6 -0.94,-2.4 -2.83,-2.4zm1.05 -7.57c2.59,0 4.73,0.12 6.43,0.37 1.7,0.25 3.07,0.62 4.09,1.11 1.07,0.53 1.87,1.33 2.4,2.4 0.53,1.07 0.8,2.32 0.8,3.75 0,1.27 -0.13,2.76 -0.4,4.46 -0.27,1.7 -0.75,3.87 -1.45,6.49 -0.82,3.2 -1.67,5.79 -2.55,7.76 -0.88,1.97 -1.99,3.5 -3.32,4.59 -1.33,1.09 -3.01,1.82 -5.02,2.19 -2.01,0.37 -4.53,0.55 -7.57,0.55 -2.42,0 -4.48,-0.13 -6.19,-0.4 -1.7,-0.27 -3.09,-0.71 -4.15,-1.32 -1.07,-0.62 -1.85,-1.4 -2.34,-2.34 -0.49,-0.94 -0.74,-2.09 -0.74,-3.45 0,-1.19 0.14,-2.61 0.43,-4.25 0.29,-1.64 0.74,-3.69 1.35,-6.16 0.82,-3.24 1.68,-5.89 2.59,-7.94 0.9,-2.05 2.02,-3.65 3.35,-4.8 1.33,-1.15 2.98,-1.94 4.92,-2.37 1.95,-0.43 4.4,-0.65 7.36,-0.65zm20.07 5.42c0.16,-0.82 0.25,-1.42 0.25,-1.79 0,-1.07 -0.62,-1.66 -1.85,-1.78l0.37 -1.42 10.59 0c2.01,0 3.02,0.62 3.02,1.85 0,0.21 -0.01,0.45 -0.03,0.74 -0.02,0.29 -0.07,0.53 -0.15,0.74l-0.31 1.48c0.7,-0.98 1.3,-1.81 1.82,-2.46 0.51,-0.66 1.1,-1.18 1.75,-1.57 0.66,-0.39 1.46,-0.66 2.4,-0.8 0.94,-0.14 2.2,-0.22 3.75,-0.22 2.79,0 4.71,0.38 5.76,1.14 1.05,0.76 1.57,2.12 1.57,4.09 0.82,-1.19 1.54,-2.13 2.15,-2.83 0.62,-0.7 1.26,-1.22 1.94,-1.57 0.68,-0.35 1.47,-0.57 2.37,-0.68 0.9,-0.1 2.07,-0.15 3.51,-0.15 2.59,0 4.45,0.36 5.6,1.08 1.15,0.72 1.72,1.86 1.72,3.42 0,0.41 -0.04,0.86 -0.12,1.35 -0.08,0.49 -0.25,1.21 -0.49,2.15l-4.55 20.01c-0.08,0.49 -0.14,0.87 -0.18,1.14 -0.04,0.27 -0.06,0.5 -0.06,0.71 0,1.07 0.59,1.66 1.79,1.78l-0.31 1.42 -10.65 0c-2.01,0 -3.02,-0.64 -3.02,-1.91 0,-0.16 0.02,-0.39 0.06,-0.68 0.04,-0.29 0.1,-0.53 0.18,-0.74l4.25 -18.59c0.08,-0.37 0.13,-0.65 0.15,-0.83 0.02,-0.18 0.03,-0.36 0.03,-0.52 0,-1.19 -0.7,-1.79 -2.09,-1.79 -1.89,0 -3.1,1.19 -3.63,3.57l-3.75 16.43c-0.12,0.49 -0.21,0.87 -0.25,1.14 -0.04,0.27 -0.06,0.5 -0.06,0.71 0,1.07 0.62,1.66 1.85,1.78l-0.31 1.42 -10.65 0c-2.01,0 -3.02,-0.64 -3.02,-1.91 0,-0.16 0.02,-0.39 0.06,-0.68 0.04,-0.29 0.08,-0.53 0.12,-0.74l4.12 -17.97c0.12,-0.45 0.21,-0.82 0.25,-1.11 0.04,-0.29 0.06,-0.55 0.06,-0.8 0,-1.19 -0.7,-1.78 -2.09,-1.78 -1.23,0 -2.13,0.47 -2.71,1.42 -0.21,0.33 -0.38,0.69 -0.52,1.08 -0.14,0.39 -0.32,1.06 -0.52,2l-3.57 15.45c-0.08,0.49 -0.14,0.87 -0.18,1.14 -0.04,0.27 -0.06,0.5 -0.06,0.71 0,1.07 0.59,1.66 1.79,1.78l-0.31 1.42 -10.65 0c-1.97,0 -2.95,-0.64 -2.95,-1.91 0,-0.16 0.01,-0.39 0.03,-0.68 0.02,-0.29 0.07,-0.53 0.15,-0.74l5.6 -24.5z"/>
 </g>
</svg>
