<?xml version="1.0" encoding="UTF-8"?>
<!DOCTYPE svg PUBLIC "-//W3C//DTD SVG 1.1//EN" "http://www.w3.org/Graphics/SVG/1.1/DTD/svg11.dtd">
<!-- Creator: CorelDRAW 2019 (64-Bit) -->
<svg xmlns="http://www.w3.org/2000/svg" xml:space="preserve" width="10.9922in" height="2.66316in" version="1.1" style="shape-rendering:geometricPrecision; text-rendering:geometricPrecision; image-rendering:optimizeQuality; fill-rule:evenodd; clip-rule:evenodd"
viewBox="0 0 486.55 117.88"
 xmlns:xlink="http://www.w3.org/1999/xlink">
 <defs>
  <style type="text/css">
   <![CDATA[
    .fil0 {fill:#FFCC29}
    .fil1 {fill:#ED3237}
    .fil2 {fill:#ED3237;fill-rule:nonzero}
   ]]>
  </style>
 </defs>
 <g id="Layer_x0020_1">
  <metadata id="CorelCorpID_0Corel-Layer"/>
  <path class="fil0" d="M242.76 51.87c21.46,0 45.97,-3.57 67.35,-5.71 23.09,-2.31 45.59,-3.19 69.13,-3.19l24.24 0.08c-0.86,-0.06 -11.01,-3.01 -13.95,-3.79 -5.04,-1.33 -9.9,-2.45 -14.82,-3.58 -50.81,-11.64 -129.01,-22.39 -178.77,0.27 -3.94,1.79 -14.93,7.47 -16.85,9.91 9.98,5.27 49.09,6.01 63.67,6.01z"/>
  <path class="fil1" d="M458.18 40.2c-7.76,10.32 -52.33,6.38 -56.67,14.74 34.39,-1.2 65.92,11.12 78.45,42.67 1.53,3.85 2.49,8.47 3.92,11.94 2.98,-4.41 3.22,-15.82 1.94,-21.5 -2.03,-9.06 -8.5,-16.77 -14.06,-24.06 -5.88,-7.7 -11.31,-13.21 -13.58,-23.79zm-436.61 77.68c-0.95,-10.76 -1.29,-17.11 3.05,-26.43 10.51,-22.61 37.64,-27.89 60.74,-30.92 18.45,-2.42 38.25,-3.8 57.21,-4.32 9.93,-0.27 20.05,-0.68 30.1,-0.75 9.77,-0.07 20.25,0.42 29.92,-0.07 -28.03,-3.95 -37.06,-6.49 -68.02,-8 -23.45,-1.15 -48.9,-0.38 -71.49,3.2 -19.07,3.02 -44.17,9.05 -58.19,18.09 -5.09,3.28 -5.95,5.48 -3.78,12.89 1.32,4.49 3.6,9.4 5.73,13.34 1.92,3.57 11.29,20.11 14.73,22.98zm117.81 -78.03l36.36 0.08c1.68,-0 15.32,-7.48 20.17,-9.57 48.25,-20.78 106.74,-17.78 156.54,-5.08 29.9,7.63 62.22,16.82 94.85,10.56 2.29,-0.44 3.63,-0.69 5.24,-1.74 -17.08,-1.23 -30.24,-2.01 -46.73,-5.66 -55.35,-12.25 -73.54,-28.45 -140.94,-28.45 -39.78,0 -90.23,12.93 -122.52,37.07l-2.99 2.78z"/>
  <path class="fil2" d="M126.04 111.08l4.08 0 0 -16.22c0,-7.21 -5.12,-8.35 -12.71,-8.35l-6.45 0c-7.3,0 -10.1,1.8 -10.1,6.21l0 1.19 4.08 0 0 -0.85c0,-1.99 1,-3.23 6.12,-3.23l5.98 0c6.26,0 9.01,0.57 9.01,4.93l0 4.55 -0.09 0c-1.42,-2.32 -3.32,-2.89 -8.63,-2.89l-6.55 0c-7.11,0 -11,0.66 -11,6.17l0 1.61c0,4.55 1.61,7.26 7.78,7.26l9.77 0c6.26,0 7.54,-0.62 8.63,-2.8l0.09 0 0 2.42zm0 -6.5c0,3.04 -2.85,3.56 -10.24,3.56l-5.41 0c-5.6,0 -6.55,-1.14 -6.55,-3.84l0 -0.76c0,-3.04 1.47,-3.79 6.73,-3.79l6.26 0c6.26,0 9.2,0.43 9.2,3.75l0 1.09zm21.39 6.5l4.84 0 13.66 -24.19 -4.32 0 -11.76 20.87 -11.76 -20.87 -4.32 0 13.66 24.19zm24.8 -7.26c0,3.94 1.8,7.64 9.44,7.64l2.23 0c8.82,0 9.3,-3.84 9.3,-8.68l0 -2.66 -3.32 0 0 1.8c0,5.07 -0.85,6.21 -6.26,6.21l-1.28 0c-4.46,0 -6.02,-1.38 -6.02,-5.88l0 -12.05 16.17 0 0 -3.32 -16.17 0 0 -5.74 -4.08 0 0 5.74 -5.31 0 0 3.32 5.31 0 0 13.61zm25.14 -2.18c0,7.97 5.64,9.82 13.37,9.82l5.83 0c7.73,0 13.37,-1.85 13.37,-9.82l0 -5.31c0,-7.97 -5.64,-9.82 -13.37,-9.82l-5.83 0c-7.73,0 -13.37,1.85 -13.37,9.82l0 5.31zm28.5 -0.24c0,5.64 -3.32,6.73 -8.06,6.73l-8.3 0c-4.74,0 -8.06,-1.09 -8.06,-6.73l0 -4.84c0,-5.64 3.32,-6.73 8.06,-6.73l8.3 0c4.74,0 8.06,1.09 8.06,6.73l0 4.84zm26.3 9.68l3.46 0 0 -27.24 -4.33 0 -11.21 8.88 1.88 2.37 10.2 -8.09 0 24.08zm19.38 -8.8c0,5.91 1.99,9.11 9.37,9.11l12.94 0c7.37,0 9.37,-3.2 9.37,-9.11l0 -9.63c0,-5.91 -1.99,-9.11 -9.37,-9.11l-12.94 0c-7.37,0 -9.37,3.2 -9.37,9.11l0 9.63zm28.22 -1.73c0,7.07 -1.05,7.83 -8.28,7.83l-8.2 0c-7.22,0 -8.28,-0.75 -8.28,-7.83l0 -6.17c0,-7.07 1.05,-7.83 8.28,-7.83l8.2 0c7.22,0 8.28,0.75 8.28,7.83l0 6.17zm12.72 10.54l4.21 0 0 -4.67 -4.21 0 0 4.67zm13.36 -7.45c0,6.96 5.15,7.75 8.05,7.75l7.3 0c6.02,0 8.43,-1.88 8.43,-6.73l0 -0.56 -3.01 0 0 0.64c0,3.12 -2.52,4.03 -5.53,4.03l-5.46 0c-3.91,0 -6.55,-0.98 -6.55,-5.27l0 -4.03c0,-4.78 2.86,-5.23 5.91,-5.23l5.94 0c3.24,0 5.34,0.75 5.34,3.95l0 0.45 3.01 0 0 -0.53c0,-4.06 -2.37,-6.51 -8.39,-6.51l-5.42 0c-4.74,0 -9.63,0.79 -9.63,7.75l0 4.29zm28.11 -0.04c0,6.32 4.48,7.79 10.61,7.79l4.63 0c6.13,0 10.61,-1.47 10.61,-7.79l0 -4.21c0,-6.32 -4.48,-7.79 -10.61,-7.79l-4.63 0c-6.13,0 -10.61,1.47 -10.61,7.79l0 4.21zm22.61 -0.19c0,4.48 -2.63,5.34 -6.4,5.34l-6.58 0c-3.76,0 -6.4,-0.87 -6.4,-5.34l0 -3.84c0,-4.48 2.63,-5.34 6.4,-5.34l6.58 0c3.76,0 6.4,0.87 6.4,5.34l0 3.84zm8.69 7.68l3.24 0 0 -12.04c0,-3.09 1.92,-4.82 6.06,-4.82l3.24 0c5.15,0 6.32,1.5 6.32,5.23l0 11.63 3.24 0 0 -11.36c0,-3.09 0.79,-5.49 6.62,-5.49l2.3 0c5.15,0 6.13,2.14 6.13,4.36l0 12.49 3.24 0 0 -12.87c0,-4.36 -3.2,-6.62 -8.39,-6.62l-3.91 0c-3.31,0 -5.91,0.94 -7.11,3.54 -1.02,-2.37 -3.27,-3.54 -6.21,-3.54l-5.23 0c-3.24,0 -5.08,0.56 -6.43,2.56l-0.08 0 0 -2.26 -3.01 0 0 19.19z"/>
 </g>
</svg>
